<svg fill="none" xmlns="http://www.w3.org/2000/svg"><path d="M320.725 2.586c-.225-.111-3.227-.254-6.679-.318-6.231-.115-8.214-.628-4.172-1.077 1.758-.195 63.892-.057 66.605.149.524.04.486.27-.084.556-.618.306-7.054.468-17.26.433-21.431-.074-36.642.036-37.4.27-.337.104-.786.098-1.01-.013zm89.739-.03c-.299-.152-3.564-.272-7.25-.267-4.817.008-6.595-.147-6.323-.553.355-.523 4.705-.589 24.069-.365 1.796.02 14.014-.043 27.129-.141 13.863-.105 24.313.003 24.939.256.655.261 1.301.264 1.619.007.608-.493 29.121-.467 30.112.029.356.18 1.123.178 1.694-.006 1.375-.443 18.475-.606 29.336-.28 15.791.472 8.962 1.01-12.779 1.006-11.787-.001-21.89.139-22.451.312-.561.173-1.459.18-1.992.013-.534-.165-8.008-.27-16.605-.234-24.247.104-45.379.105-47.437.002-1.03-.05-6.736.04-12.685.203-5.95.163-11.067.171-11.376.019zM153.417 1.96c-14.35-.661-1.46-1.207 26.193-1.11 6.941.024 35.501.098 63.443.166 46.034.11 55.988.328 49.552 1.084-2.208.26-133.36.128-139.188-.14zm143.631-.052c-.29-.24-.196-.542.225-.671 1.076-.335 9.56-.125 9.56.237 0 .848-8.793 1.238-9.785.434zm80.881-.172c0-.53 1.796-.657 8.896-.623 11.497.054 11.254.922-.318 1.133-6.932.126-8.578.028-8.578-.51zm169.319-.022c0-.97 63.846-1.284 65.81-.323 1.787.875-37.231 1.36-43.05.534-1.459-.206-5.79-.204-9.626.005-4.088.222-7.203.202-7.512-.047-.318-.255-1.085-.25-1.908.01-1.992.633-3.714.55-3.714-.18zm68.289-.19c0-.44 3.443-.6 13.799-.645 7.586-.032 20.533-.135 28.765-.228 16.661-.19 26.923.148 24.575.806-.805.226-9.392.427-19.093.447-9.71.02-18.485.043-19.514.052-22.666.197-28.522.108-28.532-.432zM0 1.142C0 .62 3.449.504 18.476.52c19.584.02 26.27.34 19.41.93C30.404 2.092 0 1.845 0 1.141zm42.72.421C41.295.849 42.302.469 45.604.476c4.538.01 6.888.682 3.821 1.094-2.875.386-5.929.383-6.705-.007zm11.131-.141C49.612.667 56.203.538 98.73.545c44.22.007 49.075.096 49.075.902 0 .477-91.269.453-93.95-.025h-.003zm633.162-.08c-.693-.567 5.706-.763 20.664-.635 17.362.15 16.371.11 16.371.653 0 .474-36.446.456-37.035-.019zm38.691-.302c-.908-.548.664-.632 10.093-.534 13.452.14 17.896.405 16.156.965-2.152.69-25.015.315-26.249-.43zm30.384.523c-3.836-.77 1.094-1.048 19.177-1.081C786.453.46 805.293.42 817.127.393 828.96.365 844.33.37 851.271.405c6.942.034 21.61.007 32.592-.06 10.973-.068 20.159.041 20.412.243.243.2.87.233 1.394.072C907.493.095 1020.68.085 1020.31.65c-.28.49-47.334.79-115.249.73a62835.4 62835.4 0 00-22.451-.017c-1.029 0-7.344.03-14.032.065-6.689.036-16.165.05-21.049.034-4.883-.018-27.203.051-49.579.153-22.377.1-41.217.078-41.862-.052zM1069.7.894c-4.11-.246-4.3-.294-1.4-.417 10.57-.45 18.71-.393 18.71.135 0 .617-9.17.766-17.31.282zm-47.24-.138c0-.385 5.71-.578 6.18-.209.28.215-1.03.39-2.81.39-1.87 0-3.37-.08-3.37-.18zm7.49-.287c0-.258.84-.469 1.77-.469 1.03 0 2.15.211 2.44.469.37.266-.47.469-1.78.469s-2.43-.211-2.43-.47zm60.15.175c.93-.48 10.85-.594 11.5-.132.28.24-2.24.426-5.8.426-3.46 0-6.08-.132-5.7-.294zm16.55-.175c0-.258.85-.469 1.97-.469 1.03 0 1.59.211 1.31.469s-1.22.469-1.97.469c-.74 0-1.31-.211-1.31-.47z" fill="#ABAFB3"/></svg>